# xmcd
#
# Track frame offsets:
#	150
#	12517
#	24867
#	37152
#	50865
#	61412
#	73592
#	83842
#	97372
#	108632
#	120120
#	132040
#	143557
#	154262
#	165807
#	177447
#	188434
#	198567
#	212305
#	220290
#
# Disc length: 3138 seconds
#
# Revision: 1
# Processed by: cddbd v1.5.2PL0 Copyright (c) Steve Scherf et al.
# Submitted via: dBpowerAMP V4.0
#
DISCID=160c4014
DTITLE=Jerry Adriani - 20 Super Sucessos
DYEAR=2007
DGENRE=MPB
TTITLE0=Hit parade do meu coração (N° 1 au hit parade)
TTITLE1=Ninguém poderá julgar-me (Nessuno mi puo'giudi care)
TTITLE2=Coração de cristal (Corazon de cristal)
TTITLE3=Deixe o mundo girar (Make the world go away)
TTITLE4=Vai caindo uma lágrima (Va cayendo una lágrima)
TTITLE5=Doce, doce amor
TTITLE6=És meu amor (It's for you)
TTITLE7=Um copo de vinho (Un vaso de vino)
TTITLE8=Em todas as árvores do mundo (En todos los arboles del mundo)
TTITLE9=Querida (Don't let them mouc)
TTITLE10=Vivendo sem você (What does it takes)
TTITLE11=Quem não quer (Black is black)
TTITLE12=Ainda gosto dela
TTITLE13=Olhos feiticeiros (Occhi di sole)
TTITLE14=Tudo que é bom dura pouco
TTITLE15=Palavras de carinho (Games people play)
TTITLE16=Ando em volta pelo mundo (Povero cane)
TTITLE17=O quanto eu te quero (Lo mucho que te quiero)
TTITLE18=Um grande amor (I knew right away)
TTITLE19=Amor querido (L'immensa verita)
EXTD=
EXTT0=
EXTT1=
EXTT2=
EXTT3=
EXTT4=
EXTT5=
EXTT6=
EXTT7=
EXTT8=
EXTT9=
EXTT10=
EXTT11=
EXTT12=
EXTT13=
EXTT14=
EXTT15=
EXTT16=
EXTT17=
EXTT18=
EXTT19=
PLAYORDER=
